<svg width="1280" height="720" viewBox="0 0 1280 720" fill="none" xmlns="http://www.w3.org/2000/svg">
<g clip-path="url(#clip0_751_263)">
<rect width="1280" height="720" fill="#D4D4D4"/>
<path d="M30.8867 123.024C46.0494 121.187 61.2121 119.349 229.15 114.496C397.088 109.644 717.343 101.833 894.728 98.4982C1072.11 95.1636 1096.93 96.542 1112.69 97.9413C1134.53 99.8787 1143.35 102.139 1148.9 102.369C1169.24 103.21 1203.13 115.116 1215.04 116.522C1217.6 116.982 1220.82 117.901 1224.08 118.833C1227.35 119.766 1230.56 120.685 1233.88 121.632" stroke="black" stroke-width="8" stroke-linecap="round"/>
<path d="M327.457 198.211C326.538 198.211 314.118 197.292 288.666 196.589C275.164 196.216 260.457 198.184 248.748 199.813C228.662 202.607 210.597 208.849 194.14 216.256C172.933 225.801 167.365 246.414 166.174 259.656C164.828 274.632 181.65 290.942 199.271 306.522C205.726 312.23 218.158 316.45 232.116 321.128C246.074 325.806 262.156 329.482 283.995 331.146C305.834 332.81 332.943 332.35 355.409 329.586C377.874 326.823 394.875 321.768 410.295 313.421C441.008 296.796 454.606 278.076 457.851 270.439C461.144 262.686 460.663 254.407 458.589 246.999C454.411 232.082 442.131 227.952 426.391 219.131C413.922 214.502 401.307 211.675 385.831 209.601C375.869 207.986 361.625 205.229 342.773 202.388" stroke="black" stroke-width="8" stroke-linecap="round"/>
<path d="M139.49 253.905C139.49 255.743 146.842 267.718 161.886 288.331C184.042 318.69 199.751 323.022 212.31 331.383C218.685 335.627 236.356 342.487 259.072 352.922C268.464 356.925 273.518 358.304 276.581 358.325C279.644 358.346 280.563 356.967 281.51 355.547" stroke="black" stroke-width="8" stroke-linecap="round"/>
<path d="M135.313 253.905C130.705 253.905 117.742 252.986 98.249 253.891C94.6638 254.058 94.9352 258.027 95.3947 261.744C97.2761 276.967 103.735 284.955 109.068 294.249C111.946 299.265 119.023 306.299 129.431 316.714C141.252 328.543 156.129 337.405 168.18 344.359C182.276 352.495 206.156 359.195 225.531 365.509C238.81 369.837 250.823 372.701 259.205 374.573C266.18 372.269 271.276 368.092 275.446 365.314C277.319 363.915 278.697 362.536 280.118 361.116" stroke="black" stroke-width="8" stroke-linecap="round"/>
<path d="M149.236 219.097C164.858 207.15 174.744 200.077 188.786 195.468C200.9 191.493 223.504 185.346 238.778 181.573C254.052 177.8 261.404 176.881 270.016 175.488C278.627 174.096 288.276 172.258 298.218 170.364" stroke="black" stroke-width="8" stroke-linecap="round"/>
<path d="M140.882 220.489C149.612 221.867 158.342 223.246 163.528 224.415C168.715 225.585 170.093 226.504 171.514 228.843" stroke="black" stroke-width="8" stroke-linecap="round"/>
<path d="M310.749 164.795C309.83 165.714 308.911 166.633 307.518 170.552C306.126 174.472 304.288 181.364 302.395 188.465" stroke="black" stroke-width="8" stroke-linecap="round"/>
<path d="M420.744 191.25C436.951 190.317 450.847 194.925 460.858 200.279C470.712 205.549 485.6 224.527 495.91 240.866C502.561 251.406 507.042 279.692 508.232 295.878C509.404 311.813 495.959 331.849 482.544 345.278C469.17 352.233 458.365 356.006 453.269 356.702C450.93 356.939 449.092 356.939 447.199 356.939" stroke="black" stroke-width="8" stroke-linecap="round"/>
<path d="M416.567 330.485C426.676 340.593 434.64 348.557 440.196 354.343C442.994 357.371 445.751 360.587 448.55 363.393C451.348 366.198 454.105 368.496 456.946 366.686" stroke="black" stroke-width="8" stroke-linecap="round"/>
<path d="M417.96 316.561C433.582 300.939 445.765 286.918 453.179 275.57C462.042 252.137 463.448 230.277 462.522 223.322C462.056 220.503 461.596 219.124 458.338 216.312" stroke="black" stroke-width="8" stroke-linecap="round"/>
<path d="M370.619 330.485C370.619 336.917 370.62 342.069 369.93 345.083C368.234 352.502 346.114 348.585 329.608 349.741C320.153 350.403 311.25 350.896 301.315 352.519C286.478 354.941 269.062 353.695 256.071 351.85C251.351 350.465 250.432 348.167 249.729 345.835C249.026 343.503 248.566 341.206 248.093 337.446" stroke="black" stroke-width="8" stroke-linecap="round"/>
<path d="M820.349 173.149C827.7 172.69 835.052 172.23 885.016 170.845C934.981 169.459 1027.34 167.162 1075.6 166.208C1123.87 165.254 1125.25 165.714 1128.71 169.167C1138.18 178.592 1146.13 190.734 1155.59 212.406C1162.76 228.829 1172.86 257.052 1180.38 275.626C1187.89 294.2 1192.02 302.47 1194.84 307.65C1197.66 312.83 1199.04 314.667 1200.46 316.561" stroke="black" stroke-width="8" stroke-linecap="round"/>
<path d="M796.679 244.159C802.192 243.24 807.706 242.321 833.75 240.929C859.794 239.536 906.201 237.698 932.864 237.441C959.528 237.183 965.042 238.562 969.95 241.339C979.856 246.946 986.01 262.162 993.863 285.282C998.959 298.753 1006.31 315.753 1011.48 331.863C1016.64 347.972 1019.4 362.676 1022.24 377.824" stroke="black" stroke-width="8" stroke-linecap="round"/>
<path d="M1097.43 239.982C1098.8 245.955 1100.18 251.928 1113.07 297.507C1125.96 343.085 1150.31 428.088 1175.4 517.059" stroke="black" stroke-width="8" stroke-linecap="round"/>
<path d="M566.941 390.356C653.323 383.463 739.704 376.571 786.501 373.021C833.298 369.47 837.893 369.47 842.627 369.47" stroke="black" stroke-width="8" stroke-linecap="round"/>
<path d="M452.769 471.112C545.583 465.139 638.397 459.165 705.048 455.629C771.7 452.092 809.377 451.173 848.196 450.227" stroke="black" stroke-width="8" stroke-linecap="round"/>
<path d="M437.453 564.399C449.859 563.48 462.265 562.561 533.212 558.642C604.159 554.722 733.272 547.83 866.297 540.729" stroke="black" stroke-width="8" stroke-linecap="round"/>
<path d="M126.959 535.16C166.014 530.106 205.07 525.051 230.014 521.988C254.958 518.925 264.607 518.006 274.548 517.059" stroke="black" stroke-width="8" stroke-linecap="round"/>
<path d="M207.715 483.643C206.336 494.67 204.958 505.698 203.788 524.014C202.619 542.33 201.7 567.602 200.753 593.639" stroke="black" stroke-width="8" stroke-linecap="round"/>
<path d="M575.295 362.509C568.403 430.511 561.511 498.513 557.961 536.072C554.41 573.63 554.41 578.685 554.41 583.892" stroke="black" stroke-width="8" stroke-linecap="round"/>
<path d="M706.176 209.35C716.284 271.839 726.393 334.327 733.668 372.722C740.943 411.116 745.078 423.521 747.438 435.196C749.798 446.871 750.258 457.439 752.123 468.327" stroke="black" stroke-width="8" stroke-linecap="round"/>
<path d="M43.418 0.497803C43.418 2.3357 43.418 6.03935 43.1883 12.0543C42.9223 19.0173 42.0256 44.3707 42.2554 78.0099C42.3822 96.578 44.3369 106.734 45.966 116.014C47.8767 126.898 44.8243 143.353 42.7357 158.655C41.5325 167.471 41.5662 172.202 37.1942 197.731C33.141 221.398 25.9301 266.91 22.1429 292.411C16.6554 329.361 15.1255 341.568 13.4895 355.937C10.4646 382.504 9.08267 393.53 7.22388 406.096C6.11579 413.587 4.90562 421.878 3.97274 430.469C2.59432 434.409 1.18805 439.06 -0.197341 447.143C-1.12325 452.468 -2.50168 460.279 -3.92188 469.719" stroke="black" stroke-width="8" stroke-linecap="round"/>
<path d="M1235.27 8.85193C1235.27 9.3114 1235.27 9.77088 1235.73 27.9271C1236.19 46.0833 1237.11 81.9224 1237.35 101.534C1237.62 123.442 1236.66 128.566 1236.43 133.432C1236.26 136.984 1247.21 151.206 1276.8 187.01C1295.24 209.317 1317.42 242.572 1332.93 266.04C1348.44 289.508 1355.79 302.833 1360.73 311.075C1365.66 319.318 1367.96 322.075 1370.33 324.915" stroke="black" stroke-width="8" stroke-linecap="round"/>
<path d="M114.428 4.67487C110.752 16.6212 107.939 31.046 106.547 44.9555C105.983 50.5862 106.073 53.3514 260.687 52.0147C415.3 50.6781 724.527 45.1644 886.353 42.7835C1048.18 40.4025 1053.23 41.3215 1059.28 41.7949C1081.12 43.5034 1091.33 43.6606 1110.31 44.8163C1120.44 45.4334 1137.92 45.053 1146.91 38.8501C1155.9 32.6472 1155.9 20.2413 1155.68 13.1612C1155.45 6.08114 1154.99 4.70271 1154.51 -0.894531" stroke="black" stroke-width="8" stroke-linecap="round"/>
</g>
<defs>
<clipPath id="clip0_751_263">
<rect width="1280" height="720" fill="white"/>
</clipPath>
</defs>
</svg>
