<svg width="256" height="512" viewBox="0 0 256 512" fill="none" xmlns="http://www.w3.org/2000/svg">
<g clip-path="url(#clip0_753_301)">
<path d="M35.0394 489.515C47.6309 472.905 60.2223 456.295 71.2632 442.782C82.304 429.269 91.4127 419.357 100.525 408.223C109.638 397.088 118.479 385.033 124.507 376.143C130.535 367.254 133.482 361.896 135.67 358.332C137.857 354.768 139.197 353.16 146.451 341.214C153.704 329.268 166.832 307.032 176.273 289.818C185.715 272.603 191.073 261.083 193.967 254.613C200.224 240.624 205.507 226.239 207.411 221.092C208.798 217.341 210.118 214.046 210.93 212.02C211.299 211.098 211.206 210.263 210.402 209.447C209.599 208.631 207.991 207.827 194.438 208.351C180.884 208.874 155.433 210.75 141.519 211.582C126.014 212.509 117.643 211.602 107.093 210.526C103.178 210.127 102.437 208.379 102.023 207.153C101.276 204.941 103.485 199.197 112.756 183.054C119.602 171.133 133.011 152.98 142.582 140.778C152.154 128.576 158.048 123.218 170.059 114.296C182.07 105.374 200.019 93.0509 209.668 86.0326C220.49 78.1604 223.627 72.812 228.088 66.0617C231.799 60.4461 231.502 54.3998 230.832 50.0768C230.247 46.2998 223.424 44.3737 214.924 42.7501C205.77 41.0014 194.49 43.5375 184.619 45.969C179.624 47.1991 176.858 49.7643 172.007 53.6651C168.807 56.2381 165.013 61.0487 144.324 95.2753C123.634 129.502 86.3956 193.263 64.935 229.324C43.4743 265.386 38.92 271.815 36.4398 275.797C33.9597 279.779 33.6918 281.119 34.3575 281.675C35.0232 282.231 36.6306 281.963 56.7477 276.467C76.8648 270.971 115.443 260.255 135.182 255.404C154.922 250.554 154.654 251.893 148.354 263.165C142.055 274.437 129.731 295.602 115.479 325.258C101.228 354.914 85.4214 392.42 69.1362 431.063" stroke="#FFF700" stroke-width="64" stroke-linecap="round"/>
<path d="M154.377 24.3379C150.627 31.0355 146.876 37.733 124.048 81.7706C101.219 125.808 59.4261 206.983 37.3606 250.274C15.2951 293.564 14.2235 296.511 12.3076 300.359" stroke="black" stroke-width="8" stroke-linecap="round"/>
<path d="M2.56641 305.23C18.3727 299.872 34.179 294.514 53.4396 286.396C72.7002 278.277 94.9361 267.561 107.061 261.505C119.185 255.449 120.525 254.377 121.905 253.273" stroke="black" stroke-width="8" stroke-linecap="round"/>
<path d="M23.6738 504.94C31.7109 490.205 39.748 475.47 74.0274 431.579C108.307 387.687 168.585 315.086 202.45 272.327C236.316 229.568 241.942 218.852 247.738 206.999" stroke="black" stroke-width="8" stroke-linecap="round"/>
<path d="M134.082 200.504C151.764 201.04 169.445 201.576 185.252 202.12C201.058 202.664 214.453 203.2 221.889 203.61C229.326 204.02 230.397 204.288 232.313 205.375" stroke="black" stroke-width="8" stroke-linecap="round"/>
<path d="M127.588 196.445C131.874 191.087 136.161 185.729 156.854 160.063C177.548 134.397 214.518 88.5859 233.698 64.5843C252.877 40.5826 253.145 39.7789 253.421 38.9508" stroke="black" stroke-width="8" stroke-linecap="round"/>
<path d="M148.695 31.6443C164.234 31.6443 179.772 31.6443 197.153 30.9746C214.535 30.3048 233.288 28.9653 252.609 27.5852" stroke="black" stroke-width="8" stroke-linecap="round"/>
<path d="M120.281 271.133C119.745 271.669 119.209 272.205 102.323 311.059C85.4371 349.913 52.2171 427.069 34.568 467.888C16.9189 508.707 15.8472 510.85 14.7432 513.058" stroke="black" stroke-width="8" stroke-linecap="round"/>
</g>
<defs>
<clipPath id="clip0_753_301">
<rect width="256" height="512" fill="white"/>
</clipPath>
</defs>
</svg>
