<svg width="256" height="256" viewBox="0 0 256 256" fill="none" xmlns="http://www.w3.org/2000/svg">
<g clip-path="url(#clip0_751_247)">
<path d="M32.27 109.912C29.089 127.407 27.4503 138.806 28.3781 146.794C29.0332 152.436 31.1614 161.145 33.5753 168.302C35.9892 175.459 38.9051 180.761 43.5882 186.938C53.9259 200.574 63.839 209.229 68.5181 212.84C71.731 215.32 76.6834 217.535 84.6881 220.475C94.4582 224.064 105.586 224.508 114.542 225.311C121.092 225.899 131.001 224.789 144.099 223.054C154.643 221.657 163.43 217.841 171.447 213.567C175.282 211.523 178.403 209.294 183.223 205.02C188.042 200.747 194.404 194.385 200.068 184.348C205.731 174.311 210.502 160.792 213.093 151.441C216.94 137.557 215.691 126.572 213.43 114.157C210.831 99.8871 205.249 91.1871 202.722 84.6645C200.889 79.9311 197.28 72.5751 192.987 65.5705C179.44 43.4706 173.664 41.6487 166.852 36.9656C157.766 30.7194 148.505 31.9933 135.689 33.3267C125.614 34.3749 115.056 33.0697 106.501 32.2664C100.089 31.6643 91.2389 34.1139 80.8083 38.1223C67.031 43.4168 62.0075 58.1963 58.1397 68.7233C55.6613 75.4687 52.9465 85.3473 51.0467 98.3524C49.1469 111.358 48.3517 127.263 48.0745 137.577C47.6836 152.127 49.3959 159.418 53.1232 167.017C58.8601 178.713 69.1727 188.063 78.788 194.345C87.8442 200.261 97.2957 202.546 105.043 204.153C112.131 205.622 117.932 204.434 123.928 202.839C133.735 200.232 142.287 194.28 150.686 184.436C156.593 177.512 163.06 164.519 167.145 155.317C173.456 141.101 172.579 128.716 171.515 116.828C170.508 105.578 165.639 94.4404 161.096 84.1464C154.264 68.6626 142.609 60.6624 135.022 57.0557C129.838 54.5913 120.808 53.714 111.53 59.7868C102.252 65.8596 92.7089 79.644 87.5277 91.7816C82.3466 103.919 81.8164 113.992 81.8084 121.302C81.7957 132.865 83.9371 141.73 86.604 150.281C89.0951 158.268 98.0829 167.419 108.505 178.247C116.729 186.79 124.88 190.497 130.764 192.103C134.433 193.105 138.544 191.589 143.886 188.127C150.698 183.712 153.019 174.214 154.626 162.49C155.68 154.795 155.172 143.344 152.389 136.412C147.8 124.983 132.736 124.379 123.904 123.041C120.632 122.546 119.844 122.234 121.157 125.013C122.471 127.793 125.917 133.625 132.331 142.328C138.745 151.032 148.023 162.43 154.923 170.158C165.559 182.069 172.025 186.48 176.29 189.015C187.791 195.848 196.621 200.12 202.148 202.153C207.59 204.154 212.189 204.426 216.338 204.964C218.972 205.306 221.033 206.305 222.636 206.04C223.474 205.902 224.238 205.245 225.046 204.839C225.853 204.434 226.648 204.169 224.009 198.731C221.371 193.292 215.274 182.689 204.578 167.286C193.882 151.883 178.773 132.002 170.194 120.302C159.665 105.943 157.855 98.7058 157.317 89.8979C156.682 79.5057 159.976 69.7877 163.711 62.3051C167.291 55.1338 173.624 52.0833 180.684 50.2157C200.653 44.9339 210.004 45.6491 218.872 47.1151C220.495 47.5207 221.555 47.7858 222.499 48.1874C223.443 48.5891 224.238 49.1192 225.058 49.6655" stroke="white" stroke-width="64" stroke-linecap="round"/>
<path d="M12.0131 114.621C11.4454 114.905 10.3013 117.607 8.86895 125.239C7.92634 130.262 8.00441 137.839 8.00011 142.779C7.99581 147.719 8.27969 149.848 9.49048 154.494C10.7013 159.139 12.8304 166.236 16.0563 174.079C19.2822 181.923 23.5404 190.297 28.0051 197.521C32.4698 204.745 37.0118 210.565 41.126 215.266C45.2401 219.967 48.7886 223.374 51.4682 225.767C55.7321 229.576 60.0191 232.032 65.0945 234.535C67.7233 235.832 70.5958 236.897 76.6003 238.83C82.6048 240.763 91.689 243.46 97.7881 245.062C103.887 246.665 106.726 247.09 111.24 247.31C115.754 247.529 121.858 247.529 126.137 247.387C132.698 247.17 138.009 245.817 144.299 243.746C147.65 242.643 151.158 240.966 154.263 239.31C157.369 237.654 159.924 235.95 166.066 230.673C172.208 225.395 181.86 216.595 187.897 210.5C193.933 204.405 196.062 201.282 198.792 195.699C201.521 190.116 204.785 182.168 207.745 170.337C210.704 158.507 213.259 143.035 214.575 131.162C215.891 119.288 215.891 111.482 212.697 99.0855C209.504 86.6893 203.116 69.9404 198.548 59.183C193.981 48.4257 191.426 44.1675 188.548 40.4125C185.671 36.6575 182.548 33.5349 179.804 31.0746C177.06 28.6143 174.789 26.911 170.78 24.3302C166.771 21.7495 161.093 18.3429 156.04 15.6654C150.986 12.9879 146.727 11.1427 142.405 9.90825C138.082 8.6738 133.824 8.10604 129.501 7.81356C125.178 7.52108 120.92 7.52107 116.455 7.94689C111.991 8.37271 107.449 9.22435 101.063 12.218C94.6783 15.2116 86.5877 20.3215 80.2907 25.012C73.9937 29.7025 69.7355 33.8187 65.9806 37.7845C62.2256 41.7502 59.1029 45.4406 55.2232 49.3289C51.3435 53.2172 46.8014 57.1916 42.6873 61.2971C38.5732 65.4026 35.0247 69.5189 31.1385 75.2588C27.2524 80.9988 23.1361 88.2378 20.9446 92.3218C18.7532 96.4058 18.6112 97.1155 18.1832 98.1908C17.7553 99.2661 17.0456 100.686 16.3144 102.578" stroke="black" stroke-width="8" stroke-linecap="round"/>
<path d="M182.342 34.1891C191.142 28.7953 199.792 25.0232 208.796 23.7307C219.115 22.2495 226.343 24.7221 228.92 25.5802C234.28 27.3654 239.531 33.3116 242.118 36.9655C244.912 40.9115 245.996 46.211 246.712 50.5015C247.422 54.7548 244.309 61.5276 239.296 68.8354C234.111 74.0399 228.683 76.6163 221.158 77.9153C218.648 78.0615 215.384 78.0615 212.02 78.0615" stroke="black" stroke-width="8" stroke-linecap="round"/>
<path d="M184.063 213.549C190.024 220.079 195.082 224.578 199.087 226.724C202.979 228.81 210.532 230.599 219.556 232.32C224.827 233.325 228.49 232.479 232.35 231.266C236.709 229.897 242.237 224.057 247.897 217.111C251.071 213.216 251.445 210.121 251.876 207.05C252.44 203.022 251.028 197.807 248.955 192.583C245.709 184.403 240.426 180.447 236.623 177.572C233.648 175.322 227.264 175.131 221.571 173.911C219.496 173.126 217.763 172.546 215.481 172.331C213.909 172.258 211.496 172.258 209.01 172.258" stroke="black" stroke-width="8" stroke-linecap="round"/>
<path d="M64.6211 86.9069C79.4219 95.4585 94.2227 104.01 101.519 108.415C108.814 112.821 108.156 112.821 107.479 112.821" stroke="black" stroke-width="8" stroke-linecap="round"/>
<path d="M101.499 84.4152C92.6188 90.9933 83.7383 97.5715 77.8479 102.194C71.9575 106.816 69.3262 109.283 66.6152 111.824" stroke="black" stroke-width="8" stroke-linecap="round"/>
<path d="M63.625 146.708C63.625 146.544 63.625 146.379 68.3942 150.57C73.1633 154.761 82.7016 163.313 88.0264 168.212C93.3512 173.11 94.1735 174.097 95.0207 175.114" stroke="black" stroke-width="8" stroke-linecap="round"/>
<path d="M95.5184 147.705C83.6778 158.394 71.8371 169.084 64.6684 175.577C57.4998 182.071 55.3619 184.044 53.1592 186.077" stroke="black" stroke-width="8" stroke-linecap="round"/>
<path d="M171.267 80.9267C165.347 84.8736 157.528 90.3604 149.397 96.5797C145.94 99.2244 144.227 101.319 141.404 105.954C138.581 110.588 134.798 117.824 132.439 122.621C129.071 129.467 128.081 135.376 127.829 141.68C127.655 146.044 131.539 153.79 136.677 164.654C140.693 173.144 144.845 176.933 147.656 178.261C152.111 178.931 157.289 178.607 161.848 177.613C163.941 177.112 165.586 176.619 168.277 175.612" stroke="black" stroke-width="8" stroke-linecap="round"/>
</g>
<defs>
<clipPath id="clip0_751_247">
<rect width="256" height="256" fill="white" transform="translate(0 256) rotate(-90)"/>
</clipPath>
</defs>
</svg>
