<svg width="256" height="256" viewBox="0 0 256 256" fill="none" xmlns="http://www.w3.org/2000/svg">
<g clip-path="url(#clip0_750_209)">
<path d="M192.975 199.353C192.445 199.353 191.915 199.353 179.183 197.099C166.451 194.846 141.533 190.34 124.853 186.56C108.173 182.781 100.485 179.865 93.609 176.905C80.7493 171.369 72.7719 167.229 66.9079 164.699C57.6783 160.716 50.8102 155.726 48.0027 152.252C45.7614 149.479 44.1108 144.762 41.9741 135.568C38.5978 121.041 38.7449 108.084 39.1425 100.207C39.5838 91.4655 43.2754 82.3866 48.3441 72.9079C54.1175 62.1113 63.3333 52.4001 71.6192 44.3753C77.5553 38.6262 85.2951 36.8325 101.128 34.5632C112.925 32.8724 132.6 32.0289 145.622 31.8763C158.643 31.7236 164.475 32.784 169.467 34.3905C174.459 35.9971 178.436 38.1178 186.979 45.1746C195.521 52.2314 208.51 64.1602 215.997 73.0887C223.484 82.0171 225.074 87.5839 226.556 94.5604C229.767 109.674 230.729 120.342 229.934 127.531C228.479 140.689 224.319 152.457 221.247 158.875C219.03 163.505 213.097 167.462 205.482 172.141C199.007 176.12 185.312 178.451 166.736 180.728C158.269 181.766 151.606 181.15 140.637 176.375C129.668 171.599 114.559 162.321 105.317 155.951C92.5872 147.177 88.8295 140.207 86.6888 131.282C83.1759 116.638 86.9257 103.529 91.5888 96.4521C97.3946 87.6409 108.317 83.1658 119.254 79.1575C133.389 73.9766 146.61 74.0405 157.675 75.631C174.298 78.0204 186.782 86.0657 193.328 91.8011C196.762 94.8089 199.08 99.3921 200.446 103.433C202.966 110.889 197.305 122.695 188.621 134.741C185.091 139.637 180.733 139.894 173.387 140.436C166.041 140.978 155.173 141.243 146.923 140.982C133.337 140.552 124.198 137.516 118.442 133.913C114.232 131.278 117.45 119.9 120.788 108.393C122.094 103.891 124.391 102.718 129.721 101.902C143.677 99.7674 156.787 102.139 164.137 108.128C174.24 116.359 172.628 129.973 170.901 135.717C168.928 142.277 160.346 144.986 151.807 146.328C133.097 149.267 127.387 138.592 124.716 136.572C123.64 135.758 122.045 139.058 116.989 146.119C111.932 153.18 103.184 164.844 95.4967 173.238C87.8093 181.632 81.4473 186.404 73.531 190.85C65.6146 195.296 56.3367 199.272 47.9786 204.104C31.8084 213.452 24.0287 221.563 22.1571 224.102C20.5906 226.226 20.0043 229.058 20.663 231.998C21.5118 235.787 34.375 235.765 52.2641 234.311C61.7949 233.537 71.7437 228.881 79.1861 224.319C92.3958 216.22 98.6938 206.341 105.895 200.867C109.981 197.761 115.747 195.127 123.652 193.493C131.556 191.858 141.629 191.593 149.337 192.649C162.415 194.442 171.246 199.875 177.536 201.088C180.791 201.715 181.191 196.686 182.653 196.272C192.132 193.59 201.201 210.277 210.085 215.406C216.778 219.27 223.194 219.161 227.504 218.37C229.552 217.994 230.986 214.366 232.858 210.096C234.199 204.767 233.95 198.316 232.348 192.432C231.541 189.994 230.745 188.669 229.926 187.303" stroke="white" stroke-width="64" stroke-linecap="round"/>
<path d="M97.1628 72.4086C96.1761 75.0398 95.01 79.6844 94.0133 85.3257C93.6744 88.9935 93.51 91.829 93.1786 94.3183C93.0116 95.3274 92.8472 95.8208 92.6777 96.3291" stroke="black" stroke-width="8" stroke-linecap="round"/>
<path d="M165.436 77.392C165.107 79.3654 164.778 81.3389 163.869 86.7135C162.959 92.0881 161.479 100.804 160.717 105.623C159.954 110.442 159.954 111.1 159.954 111.778" stroke="black" stroke-width="8" stroke-linecap="round"/>
<path d="M58.2924 130.715C57.6296 133.197 57.6246 139.476 60.0266 146.722C61.8626 152.26 67.9004 158.263 72.1389 162.504C77.9278 168.297 83.8624 171.739 86.7578 173.229C90.7026 175.259 99.0968 177.709 109.136 180.365C115.322 182.002 118.747 182.044 124.109 182.455C128.327 182.779 135.556 183.689 142.983 184.112C150.411 184.536 157.812 184.536 164.831 183.96C171.85 183.385 178.264 182.234 182.39 180.983C188.434 179.151 192.158 174.923 195.975 171.273C200.141 165.788 204.457 154.865 205.718 149.58C205.802 148.83 205.802 148.007 205.802 147.16" stroke="black" stroke-width="8" stroke-linecap="round"/>
<path d="M129.057 10.6138C126.749 9.78656 118.801 9.11878 112.801 8.78738C103.651 8.28203 97.023 10.1155 93.0238 10.9427C88.7623 11.8242 77.8169 13.7534 69.7736 16.0034C62.2633 18.1043 59.1389 23.0624 55.4811 26.2992C54.0224 27.5899 51.8282 29.8648 48.4345 33.6747C40.7281 42.326 36.3745 46.983 32.7267 51.5403C27.6578 57.873 24.0854 64.2456 21.0928 70.8038C19.6015 74.072 18.7631 79.3504 17.7664 85.3231C17.1057 89.2819 17.0986 92.6562 16.518 99.2618C16.0975 104.046 16.1019 111.788 16.2639 117.907C16.5394 128.32 17.4275 133.695 17.9209 138.808C19.0214 150.213 20.582 158.612 20.9956 160.518C21.3848 162.312 23.2282 165.245 26.3728 169.718C30.0159 174.899 34.3562 178.212 37.8322 180.614C42.0674 183.541 46.1521 185.523 51.4345 188.909C55.3375 191.411 61.9795 195.091 67.5883 198.108C73.1972 201.126 77.6375 203.264 84.4473 205.763C91.2572 208.262 100.302 211.058 108.991 213.074C117.679 215.089 125.738 216.241 133.096 216.916C140.454 217.591 146.867 217.756 152.392 217.511C157.916 217.267 162.356 216.609 167.028 215.366C182.951 211.128 186.187 208.128 189.012 206.72C193.105 204.681 195.655 202.646 200.382 200.079C206.622 196.691 212.589 192.689 217.991 188.373C220.173 186.63 226.513 180.768 235.555 171.068C242.281 163.853 243.84 158.961 244.418 157.224C246.605 150.655 247.991 144.678 249.402 132.922C249.841 129.257 249.82 127.236 250.07 122.946C250.585 114.065 249.99 107.631 249.741 105.73C249.579 104.495 249.656 102.678 248.834 97.8814C246.677 85.2984 244.344 76.4052 243.599 74.5813C241.901 70.4244 239.201 64.9533 236.295 60.7124C233.893 57.206 229.254 51.8468 224.258 46.8434C221.857 44.4395 219.601 42.3484 217.445 40.9405C215.428 39.6226 209.18 34.9031 199.804 29.0102C192.161 24.2069 188.22 22.7535 184.717 21.4154C182.851 20.7028 180.894 19.9179 176.768 18.8465C161.811 14.9626 158.967 13.7733 154.328 13.0258C151.183 12.4477 148.995 11.9444 147.508 11.6952C146.514 11.6105 145.034 11.6105 143.509 11.6105" stroke="black" stroke-width="8" stroke-linecap="round"/>
<path d="M41.3478 185.034C36.5588 187.013 29.8959 190.676 26.0013 194.154C19.7 199.782 13.7994 206.094 11.2055 210.764C7.61581 217.226 8.12822 220.407 8.12324 223.641C8.11414 229.546 13.7595 234.191 16.6673 236.439C18.5739 237.912 22.3858 239.344 26.7812 240.921C29.9164 242.046 37.9591 241.681 49.3238 241.185C56.9436 240.853 62.5823 238.865 67.1471 237.206C73.3617 234.947 80.0393 229.895 84.1008 227.159C92.0045 221.09 94.0029 218.927 94.6657 217.932C94.9996 217.432 95.3285 216.938 96.1657 216.43" stroke="black" stroke-width="8" stroke-linecap="round"/>
<path d="M177.396 215.932C178.712 218.404 183.686 224.219 190.71 228.193C195.231 230.752 202.503 232.826 207.05 234.261C215.637 236.971 219.726 236.862 226.451 237.276C237.829 237.976 243.148 235.875 246.492 233.384C249.009 231.508 249.487 228.4 249.739 225.495C250.035 222.079 250.484 217.447 250.735 213.041C250.969 208.95 250.823 204.988 250.075 200.996C249.391 197.346 247.175 195.51 244.518 192.026C241.521 188.095 237.716 186.21 233.889 184.541C233.052 184.207 232.394 183.878 231.808 183.627C231.223 183.375 230.729 183.21 229.723 183.041" stroke="black" stroke-width="8" stroke-linecap="round"/>
</g>
<defs>
<clipPath id="clip0_750_209">
<rect width="256" height="256" fill="white"/>
</clipPath>
</defs>
</svg>
