<svg width="256" height="256" viewBox="0 0 256 256" fill="none" xmlns="http://www.w3.org/2000/svg">
<g clip-path="url(#clip0_750_188)">
<path d="M146.088 32.2698C128.593 29.0888 117.194 27.4502 109.206 28.3779C103.564 29.0331 94.855 31.1613 87.6978 33.5752C80.5405 35.989 75.2389 38.905 69.0616 43.5881C55.4258 53.9258 46.7706 63.8388 43.1598 68.518C40.6805 71.7309 38.4646 76.6833 35.5246 84.688C31.9362 94.4581 31.4921 105.585 30.6889 114.542C30.1014 121.092 31.211 131.001 32.9461 144.099C34.3429 154.643 38.1594 163.43 42.4328 171.447C44.4773 175.282 46.7063 178.403 50.9798 183.223C55.2532 188.042 61.6152 194.404 71.6522 200.067C81.6892 205.731 95.2085 210.502 104.559 213.093C118.443 216.94 129.428 215.691 141.843 213.43C156.113 210.831 164.813 205.249 171.336 202.722C176.069 200.889 183.425 197.28 190.43 192.987C212.529 179.44 214.351 173.664 219.034 166.852C225.281 157.766 224.007 148.505 222.673 135.688C221.625 125.614 222.93 115.056 223.734 106.501C224.336 100.089 221.886 91.2388 217.878 80.8082C212.583 67.0309 197.804 62.0074 187.277 58.1395C180.531 55.6612 170.653 52.9463 157.648 51.0466C144.642 49.1468 128.737 48.3516 118.423 48.0744C103.873 47.6835 96.5821 49.3958 88.983 53.1231C77.2866 58.86 67.9371 69.1726 61.6554 78.7879C55.739 87.8441 53.4539 97.2955 51.8473 105.043C50.3777 112.131 51.5662 117.932 53.1607 123.928C55.7683 133.735 61.7197 142.287 71.5639 150.686C78.4885 156.593 91.4812 163.06 100.683 167.145C114.899 173.456 127.284 172.579 139.172 171.515C150.422 170.508 161.56 165.639 171.854 161.096C187.337 154.264 195.338 142.609 198.944 135.022C201.409 129.838 202.286 120.808 196.213 111.53C190.14 102.252 176.356 92.7088 164.218 87.5276C152.081 82.3465 142.008 81.8163 134.698 81.8083C123.135 81.7955 114.27 83.937 105.719 86.6038C97.7322 89.0949 88.5814 98.0827 77.7532 108.505C69.2098 116.729 65.5031 124.88 63.8965 130.764C62.8949 134.433 64.4106 138.544 67.8728 143.886C72.2881 150.698 81.7856 153.019 93.5095 154.626C101.205 155.68 112.656 155.172 119.588 152.389C131.017 147.8 131.621 132.736 132.959 123.904C133.454 120.632 133.766 119.844 130.987 121.157C128.207 122.47 122.375 125.916 113.672 132.331C104.968 138.745 93.5698 148.023 85.8422 154.923C73.9315 165.558 69.5195 172.025 66.9852 176.29C60.1519 187.791 55.8798 196.621 53.8475 202.148C51.8464 207.59 51.5742 212.189 51.036 216.338C50.6943 218.972 49.6945 221.033 49.9596 222.636C50.0983 223.474 50.7548 224.238 51.1605 225.046C51.5662 225.853 51.8312 226.648 57.2695 224.009C62.7077 221.37 73.311 215.274 88.7139 204.578C104.117 193.882 123.998 178.772 135.698 170.193C150.057 159.664 157.294 157.855 166.102 157.317C176.494 156.682 186.212 159.976 193.695 163.711C200.866 167.291 203.917 173.623 205.784 180.684C211.066 200.653 210.351 210.004 208.885 218.872C208.479 220.495 208.214 221.555 207.813 222.499C207.411 223.443 206.881 224.238 206.335 225.058" stroke="white" stroke-width="64" stroke-linecap="round"/>
<path d="M141.379 12.0131C141.095 11.4454 138.394 10.3013 130.761 8.86895C125.738 7.92634 118.161 8.00441 113.221 8.00011C108.281 7.99581 106.152 8.27969 101.506 9.49048C96.8611 10.7013 89.7641 12.8304 81.9209 16.0563C74.0776 19.2822 65.7031 23.5404 58.4792 28.0051C51.2553 32.4698 45.4357 37.0118 40.7345 41.126C36.0333 45.2401 32.6267 48.7886 30.2331 51.4682C26.4243 55.7321 23.9684 60.0191 21.465 65.0945C20.1685 67.7233 19.1037 70.5958 17.1703 76.6003C15.2369 82.6048 12.54 91.689 10.9378 97.7881C9.3356 103.887 8.90978 106.726 8.69042 111.24C8.47105 115.754 8.47105 121.858 8.61299 126.137C8.83059 132.698 10.1829 138.009 12.254 144.299C13.357 147.65 15.0347 151.158 16.6907 154.263C18.3467 157.369 20.0499 159.924 25.3275 166.066C30.6051 172.208 39.4054 181.86 45.5003 187.897C51.5951 193.933 54.7178 196.062 60.3008 198.792C65.8837 201.521 73.8324 204.785 85.6629 207.745C97.4934 210.704 112.965 213.259 124.838 214.575C136.712 215.891 144.519 215.891 156.915 212.697C169.311 209.504 186.06 203.116 196.817 198.548C207.575 193.981 211.833 191.426 215.588 188.548C219.343 185.671 222.465 182.548 224.926 179.804C227.386 177.06 229.089 174.789 231.67 170.78C234.251 166.771 237.657 161.093 240.335 156.04C243.012 150.986 244.858 146.727 246.092 142.405C247.326 138.082 247.894 133.824 248.187 129.501C248.479 125.178 248.479 120.92 248.053 116.455C247.628 111.991 246.776 107.449 243.782 101.063C240.789 94.6783 235.679 86.5877 230.988 80.2907C226.298 73.9937 222.182 69.7355 218.216 65.9806C214.25 62.2256 210.56 59.1029 206.671 55.2232C202.783 51.3435 198.809 46.8014 194.703 42.6873C190.598 38.5732 186.481 35.0247 180.741 31.1385C175.001 27.2524 167.762 23.1361 163.678 20.9446C159.594 18.7532 158.885 18.6112 157.809 18.1832C156.734 17.7553 155.315 17.0456 153.422 16.3144" stroke="black" stroke-width="8" stroke-linecap="round"/>
<path d="M221.811 182.342C227.205 191.142 230.977 199.792 232.269 208.796C233.751 219.115 231.278 226.343 230.42 228.919C228.635 234.28 222.688 239.531 219.034 242.118C215.089 244.912 209.789 245.995 205.499 246.711C201.245 247.421 194.472 244.309 187.165 239.296C181.96 234.111 179.384 228.683 178.085 221.158C177.938 218.648 177.938 215.384 177.938 212.02" stroke="black" stroke-width="8" stroke-linecap="round"/>
<path d="M42.4511 184.062C35.9218 190.024 31.4227 195.082 29.2764 199.086C27.1901 202.979 25.401 210.532 23.6805 219.556C22.6757 224.826 23.5214 228.489 24.7343 232.35C26.1038 236.708 31.9432 242.236 38.8897 247.896C42.7843 251.07 45.8791 251.445 48.9502 251.875C52.9782 252.439 58.1935 251.028 63.4174 248.955C71.5973 245.708 75.5533 240.425 78.4286 236.623C80.6784 233.648 80.8696 227.263 82.089 221.571C82.8739 219.495 83.4546 217.762 83.6697 215.48C83.7428 213.908 83.7428 211.495 83.7428 209.009" stroke="black" stroke-width="8" stroke-linecap="round"/>
<path d="M98.7969 72.6603C96.8097 80.0412 94.8226 87.4221 93.515 92.3599C92.2074 97.2977 91.6397 99.5687 91.0547 101.909" stroke="black" stroke-width="8" stroke-linecap="round"/>
<path d="M167.185 78.682C166.05 80.3853 164.914 82.0886 163.194 86.5145C161.473 90.9405 159.202 98.0375 156.862 105.35" stroke="black" stroke-width="8" stroke-linecap="round"/>
<path d="M52.7734 131.157C55.3284 138.254 57.8833 145.351 66.8642 153.975C75.8452 162.599 91.1747 172.535 103.259 178.079C115.343 183.623 123.718 184.475 131.793 184.772C139.869 185.068 147.392 184.785 153.68 183.929C159.968 183.073 164.794 181.653 170.758 178.438C176.722 175.223 183.677 170.255 188.608 165.922C193.539 161.588 196.236 158.04 198.264 154.153C200.292 150.267 201.57 146.151 203.316 141.48" stroke="black" stroke-width="8" stroke-linecap="round"/>
</g>
<defs>
<clipPath id="clip0_750_188">
<rect width="256" height="256" fill="white"/>
</clipPath>
</defs>
</svg>
